<svg id="magnifying_icon" xmlns="http://www.w3.org/2000/svg" viewBox="0 0 512.22 512.22">
  <defs>
    <style>
      .cls-1 {
        fill: #fff;
        stroke: #ccc;
        stroke-miterlimit: 10;
        stroke-width: 8px;
      }
    </style>
  </defs>
  <title>mangnifying_icon</title>
  <circle id="path" class="cls-1" cx="256.11" cy="256.11" r="252.11"/>
  <g id="glass">
    <circle class="cls-1" cx="172.88" cy="180.19" r="80.96"/>
    <path class="cls-1" d="M668.8,587.76a23.32,23.32,0,0,1-.15,32.86h0a23.31,23.31,0,0,1-32.87.15L489.36,474.35c-9.9-9.91,7.73-7.74,16.77-16.77h0c9-9,6.34-26.15,16.24-16.24Z" transform="translate(-271.58 -215.73)"/>
    <path class="cls-1" d="M522.37,507.36l-33-33c-9.9-9.91,7.73-7.74,16.77-16.77h0c9-9,6.34-26.15,16.24-16.24l33,33Z" transform="translate(-271.58 -215.73)"/>
  </g>
</svg>
